<?xml version="1.0" encoding="UTF-8" standalone="no"?>
<!DOCTYPE svg>
<svg xmlns="http://www.w3.org/2000/svg" version="1.1" viewBox="0.00 0.00 3415.00 614.00">
<path fill="#3043bf" d="
  M 23.30 31.04
  L 359.85 31.04
  A 1.26 1.26 0.0 0 1 361.11 32.30
  L 361.03 128.49
  A 1.26 1.26 0.0 0 1 359.77 129.75
  L 23.33 129.75
  A 1.26 1.26 0.0 0 1 22.07 128.49
  L 22.04 32.30
  A 1.26 1.26 0.0 0 1 23.30 31.04
  Z"
/>
<path fill="#3043bf" d="
  M 650.62 377.42
  A 0.66 0.66 0.0 0 0 651.24 376.99
  L 776.25 34.22
  Q 777.40 31.07 780.76 31.06
  L 889.23 30.93
  A 1.15 1.09 61.8 0 1 889.89 31.15
  Q 890.77 31.80 890.31 33.00
  Q 855.43 123.72 820.40 214.38
  Q 818.21 220.05 815.95 228.06
  Q 813.87 235.43 811.31 242.05
  Q 767.09 356.28 739.05 430.07
  C 736.99 435.48 735.74 442.25 733.38 448.38
  Q 712.85 501.70 692.38 554.97
  A 0.93 0.93 0.0 0 1 691.51 555.57
  L 609.20 555.76
  A 2.38 2.31 -10.3 0 1 606.98 554.27
  L 410.77 33.95
  Q 409.66 31.00 412.81 31.00
  L 521.08 31.05
  A 2.22 2.22 0.0 0 1 523.16 32.49
  Q 547.97 98.80 572.48 165.47
  Q 575.95 174.91 578.66 183.24
  C 581.27 191.25 583.70 199.10 586.69 207.18
  Q 617.63 290.79 649.66 376.51
  Q 650.01 377.43 650.62 377.42
  Z"
/>
<path fill="#3043bf" d="
  M 949.42 31.04
  L 1285.53 31.04
  A 1.42 1.42 0.0 0 1 1286.95 32.46
  L 1287.01 128.39
  A 1.42 1.42 0.0 0 1 1285.59 129.81
  L 949.42 129.81
  A 1.42 1.42 0.0 0 1 948.00 128.39
  L 948.00 32.46
  A 1.42 1.42 0.0 0 1 949.42 31.04
  Z"
/>
<path fill="#3043bf" d="
  M 1492.92 229.96
  Q 1491.00 227.26 1491.00 230.57
  L 1490.99 554.26
  A 1.26 1.25 -90.0 0 1 1489.74 555.52
  L 1385.78 555.56
  A 0.78 0.77 90.0 0 1 1385.01 554.78
  L 1385.00 31.99
  A 0.94 0.94 0.0 0 1 1385.94 31.05
  Q 1436.26 31.02 1476.73 31.05
  C 1477.98 31.06 1479.13 31.69 1479.94 32.69
  Q 1498.83 55.84 1514.33 80.91
  Q 1516.72 84.77 1526.09 98.17
  C 1533.50 108.76 1546.43 125.29 1556.10 139.06
  Q 1596.67 196.83 1637.88 254.83
  C 1646.61 267.12 1656.69 278.65 1664.72 291.46
  C 1671.08 301.61 1677.47 311.72 1684.55 321.56
  Q 1698.78 341.29 1712.66 358.95
  Q 1713.00 359.39 1713.50 359.13
  Q 1714.14 358.81 1714.14 357.75
  Q 1714.24 194.88 1714.24 32.32
  A 1.28 1.27 -0.2 0 1 1715.51 31.05
  L 1817.95 31.00
  Q 1820.15 31.00 1820.15 33.20
  L 1820.11 554.29
  A 1.41 1.40 90.0 0 1 1818.71 555.70
  L 1725.97 555.71
  A 3.24 3.21 -17.5 0 1 1723.34 554.36
  L 1492.92 229.96
  Z"
/>
<path fill="#3043bf" d="
  M 2033.18 130.52
  A 0.91 0.90 -4.0 0 0 2032.28 129.75
  L 1891.53 129.82
  A 0.79 0.79 0.0 0 1 1890.74 129.03
  L 1890.70 31.81
  A 0.74 0.74 0.0 0 1 1891.44 31.07
  L 2283.03 30.95
  A 0.83 0.83 0.0 0 1 2283.86 31.78
  L 2283.97 128.72
  Q 2283.97 129.91 2282.78 129.91
  L 2138.49 129.71
  A 0.81 0.81 0.0 0 0 2137.68 130.52
  L 2137.68 554.69
  A 0.87 0.86 -0.0 0 1 2136.81 555.55
  L 2034.54 555.54
  Q 2033.38 555.54 2033.38 554.38
  Q 2033.34 341.76 2033.37 133.21
  Q 2033.37 131.83 2033.18 130.52
  Z"
/>
<rect fill="#3043bf" x="2574.20" y="31.04" width="344.38" height="98.76" rx="1.05"/>
<path fill="#3043bf" d="
  M 3167.21 213.75
  Q 3193.61 172.95 3218.28 130.45
  C 3221.20 125.42 3223.35 119.69 3226.69 114.87
  C 3228.44 112.35 3230.30 109.89 3231.86 107.25
  Q 3244.45 85.99 3263.93 53.72
  Q 3271.48 41.21 3277.78 32.54
  Q 3278.82 31.10 3280.75 31.10
  Q 3340.21 31.00 3399.67 30.93
  Q 3400.02 30.93 3400.29 31.08
  Q 3400.58 31.25 3400.81 31.49
  A 0.93 0.92 42.3 0 1 3400.87 32.65
  Q 3389.47 48.03 3379.38 66.14
  C 3372.52 78.45 3365.78 90.18 3357.86 102.41
  Q 3333.40 140.17 3310.01 178.60
  C 3305.32 186.32 3299.82 193.50 3295.88 201.64
  Q 3293.57 206.40 3289.86 212.31
  Q 3256.77 264.98 3223.53 317.55
  Q 3221.91 320.11 3221.04 324.75
  Q 3220.43 327.97 3220.42 332.28
  Q 3220.25 442.74 3220.35 553.24
  Q 3220.35 553.99 3220.25 554.76
  A 0.91 0.91 0.0 0 1 3219.36 555.54
  Q 3167.34 555.79 3116.62 555.69
  Q 3115.97 555.69 3115.33 555.54
  Q 3114.48 555.35 3114.48 554.48
  Q 3114.46 440.67 3114.48 329.38
  Q 3114.48 325.47 3112.49 322.14
  Q 3094.89 292.71 3076.03 263.56
  Q 3071.26 256.20 3067.28 249.07
  C 3063.59 242.48 3060.09 235.58 3056.28 229.17
  C 3044.38 209.13 3031.26 190.06 3019.05 170.02
  Q 2982.78 110.50 2943.50 45.95
  C 2940.81 41.52 2937.17 37.08 2934.18 32.49
  A 1.01 1.01 0.0 0 1 2935.02 30.93
  L 3054.81 31.06
  A 2.75 2.74 74.5 0 1 3057.16 32.39
  L 3166.50 213.74
  Q 3166.85 214.31 3167.21 213.75
  Z"
/>
<path fill="#3043bf" d="
  M 2460.56 32.04
  L 2460.56 554.64
  A 0.87 0.87 0.0 0 1 2459.69 555.51
  L 2357.06 555.67
  A 0.87 0.87 0.0 0 1 2356.19 554.80
  L 2356.21 63.67
  A 0.87 0.87 0.0 0 1 2356.82 62.84
  L 2459.43 31.21
  A 0.87 0.87 0.0 0 1 2460.56 32.04
  Z"
/>
<rect fill="#3043bf" x="21.98" y="244.00" width="339.08" height="100.50" rx="1.63"/>
<rect fill="#3043bf" x="948.00" y="244.00" width="338.92" height="100.50" rx="1.35"/>
<path fill="#3043bf" d="
  M 2678.73 352.17
  Q 2678.71 450.18 2678.76 552.86
  Q 2678.76 553.95 2678.55 555.07
  Q 2678.43 555.70 2677.79 555.70
  L 2575.30 555.71
  A 1.19 1.18 90.0 0 1 2574.12 554.52
  Q 2574.07 404.33 2574.15 254.37
  Q 2574.15 253.44 2574.28 252.94
  A 0.77 0.77 0.0 0 1 2575.03 252.36
  L 2917.44 252.36
  A 1.08 1.08 0.0 0 1 2918.52 253.44
  L 2918.57 350.60
  A 0.67 0.67 0.0 0 1 2917.90 351.27
  L 2679.77 351.13
  A 1.04 1.04 0.0 0 0 2678.73 352.17
  Z"
/>
<rect fill="#3043bf" x="947.99" y="457.38" width="338.94" height="98.32" rx="1.47"/>
<rect fill="#3043bf" x="22.07" y="457.48" width="338.98" height="98.22" rx="1.52"/>
</svg>
