<?xml version="1.0" encoding="UTF-8" standalone="no"?>
<!DOCTYPE svg PUBLIC "-//W3C//DTD SVG 1.1//EN" "http://www.w3.org/Graphics/SVG/1.1/DTD/svg11.dtd">
<svg xmlns="http://www.w3.org/2000/svg" version="1.1" viewBox="0.00 0.00 135.00 23.00">
<rect fill="#f2f2f2" x="-6.64" y="-1.89" transform="translate(44.35,2.61) rotate(-0.1)" width="13.28" height="3.78" rx="0.32"/>
<path fill="#f2f2f2" d="
  M 67.79 12.73
  L 67.73 1.03
  A 0.30 0.30 0.0 0 1 68.03 0.73
  L 71.68 0.73
  A 0.30 0.30 0.0 0 1 71.98 1.03
  L 71.97 20.73
  A 0.30 0.30 0.0 0 1 71.67 21.03
  L 68.30 21.04
  A 0.30 0.30 0.0 0 1 68.05 20.91
  L 59.46 8.85
  A 0.30 0.30 0.0 0 0 58.92 9.03
  L 59.04 20.70
  A 0.30 0.30 0.0 0 1 58.74 21.00
  L 55.09 21.05
  A 0.30 0.30 0.0 0 1 54.79 20.75
  L 54.80 1.04
  A 0.30 0.30 0.0 0 1 55.09 0.74
  L 58.40 0.68
  A 0.30 0.30 0.0 0 1 58.65 0.81
  L 67.25 12.91
  A 0.30 0.30 0.0 0 0 67.79 12.73
  Z"
/>
<path fill="#f2f2f2" d="
  M 125.26 7.24
  L 129.06 0.95
  Q 129.18 0.75 129.42 0.75
  L 133.79 0.68
  A 0.13 0.12 15.7 0 1 133.90 0.87
  L 127.28 11.49
  Q 126.94 12.04 126.94 12.68
  L 126.95 20.78
  Q 126.95 21.02 126.72 21.02
  L 123.23 21.04
  Q 122.90 21.04 122.89 20.71
  Q 122.81 17.51 122.93 14.16
  Q 123.00 12.20 121.90 10.48
  Q 118.67 5.47 115.98 0.89
  A 0.10 0.10 0.0 0 1 116.07 0.74
  L 120.45 0.73
  Q 120.56 0.73 120.62 0.82
  L 124.52 7.24
  Q 124.89 7.85 125.26 7.24
  Z"
/>
<rect fill="#f2f2f2" x="1.24" y="0.73" width="13.26" height="3.76" rx="0.28"/>
<path fill="#f2f2f2" d="
  M 26.26 13.57
  L 30.81 0.96
  A 0.35 0.35 0.0 0 1 31.13 0.73
  L 34.83 0.70
  A 0.35 0.35 0.0 0 1 35.16 1.18
  L 27.65 20.80
  A 0.35 0.35 0.0 0 1 27.32 21.02
  L 24.53 21.03
  A 0.35 0.35 0.0 0 1 24.20 20.80
  L 16.69 1.18
  A 0.35 0.35 0.0 0 1 17.02 0.70
  L 20.77 0.74
  A 0.35 0.35 0.0 0 1 21.09 0.97
  L 25.60 13.57
  A 0.35 0.35 0.0 0 0 26.26 13.57
  Z"
/>
<path fill="#f2f2f2" d="
  M 80.05 4.50
  L 75.09 4.50
  A 0.33 0.33 0.0 0 1 74.76 4.17
  L 74.75 1.06
  A 0.33 0.33 0.0 0 1 75.08 0.73
  L 89.70 0.72
  A 0.33 0.33 0.0 0 1 90.03 1.04
  L 90.08 4.16
  A 0.33 0.33 0.0 0 1 89.75 4.50
  L 84.66 4.49
  A 0.33 0.33 0.0 0 0 84.33 4.82
  L 84.33 20.70
  A 0.33 0.33 0.0 0 1 84.00 21.03
  L 80.70 21.06
  A 0.33 0.33 0.0 0 1 80.37 20.73
  L 80.38 4.83
  A 0.33 0.33 0.0 0 0 80.05 4.50
  Z"
/>
<path fill="#f2f2f2" d="
  M 97.06 1.08
  L 97.03 20.72
  A 0.30 0.30 0.0 0 1 96.73 21.02
  L 93.28 21.03
  A 0.30 0.30 0.0 0 1 92.98 20.73
  L 92.99 2.13
  A 0.30 0.30 0.0 0 1 93.20 1.85
  L 96.67 0.80
  A 0.30 0.30 0.0 0 1 97.06 1.08
  Z"
/>
<rect fill="#f2f2f2" x="101.63" y="0.72" width="13.50" height="3.78" rx="0.30"/>
<rect fill="#f2f2f2" x="-6.63" y="-1.90" transform="translate(7.87,10.86) rotate(-0.1)" width="13.26" height="3.80" rx="0.26"/>
<rect fill="#f2f2f2" x="37.73" y="8.96" width="13.26" height="3.80" rx="0.27"/>
<path fill="#f2f2f2" d="
  M 105.62 13.33
  L 105.64 20.70
  A 0.33 0.33 0.0 0 1 105.31 21.03
  L 101.95 21.04
  A 0.33 0.33 0.0 0 1 101.62 20.71
  L 101.63 9.58
  A 0.33 0.33 0.0 0 1 101.96 9.25
  L 114.78 9.24
  A 0.33 0.33 0.0 0 1 115.11 9.57
  L 115.14 12.70
  A 0.33 0.33 0.0 0 1 114.81 13.03
  L 105.95 13.00
  A 0.33 0.33 0.0 0 0 105.62 13.33
  Z"
/>
<rect fill="#f2f2f2" x="1.24" y="17.29" width="13.26" height="3.74" rx="0.29"/>
<rect fill="#f2f2f2" x="37.70" y="17.28" width="13.28" height="3.76" rx="0.31"/>
</svg>
